<svg width="150px" height="100px" viewBox="0 0 860.0 713.0" xmlns="http://www.w3.org/2000/svg">
 <style type="text/css">.st0{fill:#CC092F;}
	.st1{fill:#FFFFFF;}</style>

 <g>
  <title>background</title>
  <rect fill="none" id="canvas_background" height="715" width="862" y="-1" x="-1"/>
 </g>
 <g>
  <title>Layer 1</title>
  <g id="Layer_1"/>
  <g stroke="null" id="PROPORÇ_x2DC_AO_E_REGRAS">
   <g stroke="null" id="svg_1">
    <path stroke="null" id="svg_2" d="m248.830345,592.598069c-12.463421,-0.244381 -23.338367,1.221904 -34.091123,3.787903c-2.077237,7.087043 -1.832856,17.595418 0,24.926842c13.196564,-3.05476 20.650178,-3.299141 28.959126,-3.299141c16.251324,0 24.1937,6.598282 24.1937,20.039226l0,1.221904c-4.887616,-0.488762 -10.630565,-0.977523 -14.785039,-0.977523c-27.004079,0 -50.098066,9.653042 -50.098066,35.557408c0,29.203507 20.894559,39.100929 51.075589,39.100929c14.296277,0 29.692268,-2.565998 43.988545,-6.842663l0,-65.860628c0,-31.402934 -16.984466,-46.921115 -49.242733,-47.654258zm19.061703,94.575373c-1.832856,0.488762 -9.653042,1.221904 -13.440944,1.221904c-14.540658,0 -22.360844,-4.276664 -22.360844,-14.540658s7.820186,-14.296277 22.360844,-14.296277c4.887616,0 10.386184,0.488762 13.440944,0.733142l0,26.881889z" class="st0"/>
    <path stroke="null" id="svg_3" d="m190.545522,594.064353c-15.02942,0 -23.582748,5.865139 -31.769505,16.251324c-0.733142,-5.376378 -1.832856,-9.653042 -3.543522,-15.02942c-3.05476,-0.977523 -8.431138,-1.221904 -12.952183,-1.221904c-4.276664,0 -9.897423,0.488762 -12.707802,1.221904l0,115.225551c3.787903,0.977523 10.141804,1.221904 15.762562,1.221904c5.376378,0 12.463421,-0.488762 15.762562,-1.221904l0,-56.207586c0,-22.360844 11.730279,-34.335504 27.492841,-34.335504c2.810379,0 7.575805,0 10.386184,0.488762c1.832856,-7.331424 2.077237,-18.08418 0.488762,-25.415604c-1.832856,-0.366571 -6.353901,-0.977523 -8.919899,-0.977523z" class="st0"/>
    <path stroke="null" id="svg_4" d="m58.824267,593.08683c-9.16428,0 -18.08418,2.077237 -23.582748,4.887616l0,-56.451967c-8.919899,3.299141 -18.328561,7.820186 -26.148746,14.296277c-4.032283,3.299141 -5.376378,6.598282 -5.376378,11.485898l0,139.29706c8.431138,3.543522 25.415604,6.598282 41.666928,6.598282c41.178166,0 64.883104,-25.171223 64.883104,-61.583964c0,-36.16836 -16.862276,-58.529203 -51.44216,-58.529203zm-11.608088,94.330992c-3.299141,0 -8.431138,0 -11.97466,-1.221904l0,-63.294629c4.276664,-2.321618 10.386184,-3.543522 18.328561,-3.543522c15.762562,0 24.1937,10.874946 24.1937,31.525124c-0.12219,21.505511 -10.019613,36.534931 -30.547601,36.534931z" class="st0"/>
    <path stroke="null" id="svg_5" d="m389.838071,567.182465l0,27.737222c-5.620759,-1.466285 -11.485898,-1.832856 -16.495705,-1.832856c-34.824265,0 -58.529203,23.338367 -58.529203,60.728631c0,38.123406 23.093986,59.262346 59.262346,59.262346c16.495705,0 32.747028,-2.321618 47.287686,-7.087043l0,-164.468284c-8.919899,3.299141 -18.328561,7.820186 -26.148746,14.296277c-4.032283,3.176951 -5.376378,6.476091 -5.376378,11.363708zm0,118.402501c-5.376378,1.466285 -9.16428,1.832856 -13.440944,1.832856c-20.894559,0 -28.959126,-13.685325 -28.959126,-33.602361c0,-22.116463 8.186757,-35.557408 28.714745,-35.557408c6.10952,0 9.897423,0.733142 13.685325,1.832856l0,65.494057z" class="st0"/>
    <path stroke="null" id="svg_6" d="m615.401557,642.207373l-12.707802,-5.376378c-7.331424,-3.05476 -11.730279,-5.620759 -11.730279,-10.386184c0,-7.331424 6.598282,-8.919899 15.2738,-8.919899c8.675519,0 17.595418,0.977523 29.692268,4.887616c1.466285,-8.431138 1.466285,-16.251324 0,-23.582748c-7.575805,-4.032283 -21.872082,-6.10952 -34.335504,-6.10952c-24.438081,0 -43.011022,13.196564 -43.011022,32.991409c0,17.839799 7.575805,26.637508 28.959126,35.313027l9.897423,4.032283c9.408661,3.787903 12.21904,6.10952 12.21904,12.21904c0,9.16428 -9.16428,10.630565 -16.740085,10.630565c-12.707802,0 -22.360844,-2.565998 -34.579884,-6.842663c-2.077237,7.331424 -2.077237,16.984466 0,24.682462c10.386184,5.620759 24.682462,7.331424 39.711881,7.331424c24.1937,0 43.499784,-12.707802 43.499784,-35.557408c0,-18.817322 -8.064567,-27.737222 -26.148746,-35.313027z" class="st0"/>
    <path stroke="null" id="svg_7" d="m713.520451,687.173441c-15.762562,0 -26.148746,-12.463421 -26.148746,-34.335504c0,-20.894559 8.431138,-34.335504 26.393127,-34.335504c7.575805,0 12.952183,1.221904 20.039226,4.032283c2.077237,-7.087043 5.865139,-15.2738 11.241517,-22.116463c-9.897423,-5.131997 -19.550465,-7.820186 -35.313027,-7.820186c-34.824265,0 -54.863491,24.682462 -54.863491,60.239869c0,36.901502 20.650178,60.239869 56.207586,60.239869c12.952183,0 24.926842,-2.321618 34.579884,-7.575805c-4.276664,-5.620759 -9.16428,-13.196564 -11.97466,-22.116463c-8.919899,3.543522 -12.829992,3.787903 -20.161417,3.787903z" class="st0"/>
    <path stroke="null" id="svg_8" d="m801.741923,592.598069c-35.313027,0 -55.107872,24.1937 -55.107872,60.48425c0,36.901502 20.894559,59.995488 55.107872,59.995488c35.557408,0 55.474443,-23.582748 55.474443,-59.995488c0,-36.657121 -19.917036,-60.48425 -55.474443,-60.48425zm0,95.064134c-17.595418,0 -22.849606,-14.296277 -22.849606,-34.579884c0,-19.794845 5.376378,-35.068646 22.849606,-35.068646c18.08418,0 23.093986,14.785039 23.093986,35.068646c0,21.383321 -5.742949,34.579884 -23.093986,34.579884z" class="st0"/>
    <path stroke="null" id="svg_9" d="m494.066485,592.598069c-34.091123,0 -54.863491,22.849606 -54.863491,60.973012c0,38.123406 22.116463,59.506727 59.995488,59.506727c12.952183,0 27.004079,-2.321618 35.801788,-6.598282c1.832856,-7.331424 1.832856,-16.984466 0,-24.438081c-11.730279,3.299141 -21.627701,5.376378 -32.502647,5.376378c-17.595418,0 -29.692268,-6.598282 -32.258267,-25.171223l71.725767,0c0.977523,-2.810379 1.221904,-12.21904 1.221904,-16.006943c0,-34.335504 -19.306084,-53.641587 -49.120542,-53.641587zm-23.827129,46.554544c2.321618,-13.929706 10.630565,-22.360844 23.338367,-22.360844c14.296277,0 19.794845,9.653042 20.283607,22.360844l-43.621974,0z" class="st0"/>
    <path stroke="null" id="svg_10" d="m417.086531,102.003597c-28.714745,0 -59.995488,2.688189 -90.909661,7.942376c31.280743,-40.200643 81.012238,-66.227199 136.364491,-66.227199c40.933785,0 81.74538,15.395991 109.238221,38.367787c5.009807,4.154474 8.797709,4.521045 12.585612,0.733142c3.787903,-3.787903 3.421331,-7.575805 -0.733142,-12.463421c-35.923979,-41.789118 -88.710233,-69.892911 -150.905149,-68.793197c-81.378809,1.466285 -150.538578,53.030635 -176.931705,124.389831c-24.07151,7.575805 -46.187973,16.495705 -65.738437,27.492841c-5.376378,3.05476 -7.209234,6.720472 -5.376378,11.241517c1.955046,4.154474 5.742949,5.620759 11.119327,4.154474c16.862276,-4.887616 33.968932,-9.04209 51.930922,-12.829992c-1.955046,9.408661 -3.05476,19.183893 -3.05476,29.325697c-1.588475,65.738437 33.602361,128.177734 87.8549,162.391047c5.376378,3.421331 9.897423,3.421331 12.952183,-0.733142c3.05476,-4.154474 2.688189,-7.942376 -1.955046,-11.97466c-34.335504,-30.791982 -53.519397,-76.735574 -53.519397,-122.190404c0,-22.971796 4.643235,-45.088259 13.318754,-65.005295c17.961989,-1.466285 37.390264,-2.688189 58.895775,-2.688189c139.05268,0 256.355467,45.821401 256.355467,106.061271c0,30.425411 -38.612168,60.850821 -84.433569,81.256619c-11.119327,4.887616 -12.21904,8.308947 -10.752756,13.196564c1.588475,4.521045 6.476091,5.98733 12.21904,4.154474c80.279095,-26.270937 141.007726,-69.52634 141.007726,-121.823833c0.244381,-71.114815 -114.370218,-125.978306 -259.532418,-125.978306z" class="st0"/>
    <path stroke="null" id="svg_11" d="m483.43592,463.442812l0,-152.249243c0,-5.865139 -5.620759,-7.942376 -10.263994,-5.254187l-38.734358,22.238654l0,142.596201l41.544737,0c4.154474,0 7.453615,-3.299141 7.453615,-7.331424z" class="st0"/>
    <path stroke="null" id="svg_12" d="m387.394263,360.802872l0,105.328128c0,2.688189 2.077237,4.765426 4.765426,4.765426l29.325697,0l0,-135.264777l-29.325697,16.862276c-2.93257,1.710666 -4.765426,4.398855 -4.765426,8.308947z" class="st0"/>
   </g>
  </g>
 </g>
</svg>
